<svg xmlns="http://www.w3.org/2000/svg" viewBox="0 0 512 512">
	<path d="M269.1,480.6h-27.4c-7.5,0-14.3-6.2-17.7-16.5c-2.6-8-6-18.5-9.8-30.6l-46.9,71.1c-3.8,5.8-9.4,8.1-14.6,5.9
		s-9.3-8.4-10.6-16.3l-16-94.7c-3.9-23.5,0.5-48.2,11.8-65.3l36.5-55.3c-0.7-4.3-1.3-8.4-1.8-12.4C155.3,130.1,207.7,45.5,245.9,5.5
		c6.1-6.4,14.1-6.3,20.2,0c38.3,40,90.5,124.7,73.3,260.8c-0.5,4-1.1,8.1-1.8,12.4l36.5,55.3c11.3,17.1,15.8,41.9,11.8,65.3
		l-16,94.7c-1.3,7.9-5.4,14.2-10.6,16.3c-5.2,2.2-10.8-0.1-14.6-5.9l-47.5-72c-4.1,12.8-7.8,23.7-10.6,32
		C283.2,474.4,276.4,480.6,269.1,480.6L269.1,480.6z"/>
</svg>
